<svg width="220" height="220" viewBox="0 0 220 220" fill="none" xmlns="http://www.w3.org/2000/svg">
<rect width="110" height="220" fill="white"/>
<path d="M37.232 155.96C36.1653 155.96 34.6933 155.917 32.816 155.832C30.9387 155.789 28.912 155.725 26.736 155.64C24.6027 155.597 22.512 155.533 20.464 155.448C18.4587 155.363 16.7947 155.277 15.472 155.192C15.9413 152.547 16.5813 149.176 17.392 145.08C18.2453 140.984 19.2267 136.44 20.336 131.448C21.4453 126.456 22.6187 121.251 23.856 115.832C25.0933 110.371 26.3733 104.952 27.696 99.576C29.0187 94.2 30.2987 89.1013 31.536 84.28C32.7733 79.4587 33.9253 75.1707 34.992 71.416C39.3013 70.8613 43.5467 70.4133 47.728 70.072C51.952 69.688 56.048 69.496 60.016 69.496C62.2773 69.496 64.5387 69.56 66.8 69.688C69.0613 69.816 71.3013 70.0293 73.52 70.328C74.3307 74.0827 75.1627 78.392 76.016 83.256C76.8693 88.12 77.7227 93.8587 78.576 100.472C79.472 107.043 80.3467 114.787 81.2 123.704C82.096 132.579 82.992 142.925 83.888 154.744C82.48 154.915 80.4747 155.107 77.872 155.32C75.2693 155.533 72.5387 155.683 69.68 155.768C66.864 155.896 64.3467 155.96 62.128 155.96C62.0427 154.723 61.9573 153.315 61.872 151.736C61.8293 150.157 61.7653 148.472 61.68 146.68C61.5947 144.888 61.5093 143.075 61.424 141.24C61.3813 139.405 61.3387 137.635 61.296 135.928C61.2533 134.221 61.2107 132.643 61.168 131.192C59.8027 131.235 58.3307 131.299 56.752 131.384C55.1733 131.427 53.5733 131.512 51.952 131.64C50.3733 131.725 48.88 131.832 47.472 131.96C46.064 132.045 44.8267 132.152 43.76 132.28C42.6933 132.408 41.9253 132.515 41.456 132.6C40.816 135.501 40.2187 138.424 39.664 141.368C39.1093 144.312 38.6187 147.064 38.192 149.624C37.7653 152.141 37.4453 154.253 37.232 155.96ZM44.08 114.872C45.0613 114.701 46.5973 114.509 48.688 114.296C50.7787 114.083 52.9547 113.912 55.216 113.784C57.4773 113.656 59.312 113.571 60.72 113.528C60.6347 112.632 60.528 110.947 60.4 108.472C60.3147 105.955 60.1867 103.224 60.016 100.28C59.8453 97.2933 59.6747 94.5627 59.504 92.088C59.376 89.5707 59.248 87.8427 59.12 86.904C58.4373 86.904 57.4133 86.9467 56.048 87.032C54.6827 87.1173 53.36 87.2027 52.08 87.288C50.8 87.3733 49.904 87.4587 49.392 87.544C49.136 88.7813 48.7733 90.5093 48.304 92.728C47.8773 94.904 47.408 97.336 46.896 100.024C46.384 102.712 45.872 105.357 45.36 107.96C44.8907 110.52 44.464 112.824 44.08 114.872Z" fill="#1E1E1E"/>
<rect width="110" height="220" transform="translate(110)" fill="#1E1E1E"/>
<path d="M153.44 155.384C150.837 155.427 148.085 155.363 145.184 155.192C142.325 155.064 139.68 154.893 137.248 154.68C134.816 154.467 132.939 154.275 131.616 154.104C131.616 153.677 131.616 152.504 131.616 150.584C131.616 148.664 131.616 146.211 131.616 143.224C131.616 140.237 131.616 136.931 131.616 133.304C131.616 129.635 131.616 125.837 131.616 121.912C131.659 117.987 131.68 114.147 131.68 110.392C131.68 105.741 131.659 101.133 131.616 96.568C131.573 91.96 131.509 87.6933 131.424 83.768C131.339 79.8 131.211 76.5147 131.04 73.912C131.893 73.912 133.195 73.9547 134.944 74.04C136.693 74.1253 138.613 74.232 140.704 74.36C142.837 74.488 144.907 74.6587 146.912 74.872C148.917 75.0427 150.624 75.2347 152.032 75.448C154.805 79.4587 157.472 83.5547 160.032 87.736C162.635 91.8747 165.088 96.056 167.392 100.28C169.739 104.461 171.936 108.643 173.984 112.824C176.075 117.005 178.016 121.123 179.808 125.176L177.184 75.064C178.464 75.064 180.021 75.128 181.856 75.256C183.733 75.384 185.653 75.5333 187.616 75.704C189.621 75.8747 191.456 76.088 193.12 76.344C194.827 76.6 196.107 76.856 196.96 77.112C197.088 78.9467 197.216 81.0587 197.344 83.448C197.515 85.7947 197.643 88.3333 197.728 91.064C197.813 93.752 197.899 96.5467 197.984 99.448C198.069 102.307 198.133 105.187 198.176 108.088C198.219 110.947 198.24 113.699 198.24 116.344C198.24 120.653 198.176 124.92 198.048 129.144C197.963 133.325 197.813 137.229 197.6 140.856C197.429 144.44 197.237 147.469 197.024 149.944C196.811 152.376 196.576 153.997 196.32 154.808C195.125 154.851 193.845 154.893 192.48 154.936C191.157 154.936 189.813 154.936 188.448 154.936C186.443 154.936 184.48 154.893 182.56 154.808C180.683 154.723 179.104 154.573 177.824 154.36C177.397 153.592 176.672 152.291 175.648 150.456C174.667 148.579 173.451 146.317 172 143.672C170.549 140.984 168.971 138.061 167.264 134.904C165.557 131.747 163.808 128.525 162.016 125.24C160.224 121.912 158.453 118.669 156.704 115.512C154.955 112.355 153.355 109.453 151.904 106.808C152.032 108.003 152.16 109.816 152.288 112.248C152.416 114.68 152.523 117.496 152.608 120.696C152.736 123.896 152.843 127.224 152.928 130.68C153.013 134.093 153.099 137.443 153.184 140.728C153.269 143.971 153.333 146.893 153.376 149.496C153.419 152.056 153.44 154.019 153.44 155.384Z" fill="white"/>
</svg>
